<svg width="25" height="25" viewBox="0 0 25 25" fill="none" xmlns="http://www.w3.org/2000/svg">
  <path d="M12.2622 6.45105V9.78105" stroke="" stroke-width="1.5" stroke-miterlimit="10" stroke-linecap="round"/>
  <path d="M12.2821 2.01111C8.60211 2.01111 5.6221 4.99111 5.6221 8.67111V10.7711C5.6221 11.4511 5.3421 12.4711 4.9921 13.0511L3.7221 15.1711C2.9421 16.4811 3.4821 17.9411 4.9221 18.4211C9.7021 20.0111 14.8721 20.0111 19.6521 18.4211C21.0021 17.9711 21.5821 16.3911 20.8521 15.1711L19.5821 13.0511C19.2321 12.4711 18.9521 11.4411 18.9521 10.7711V8.67111C18.9421 5.01111 15.9421 2.01111 12.2821 2.01111Z" stroke="" stroke-width="1.5" stroke-miterlimit="10" stroke-linecap="round"/>
  <path d="M15.5921 18.8311C15.5921 20.6611 14.0921 22.1611 12.2621 22.1611C11.3521 22.1611 10.5121 21.7811 9.91213 21.1811C9.31213 20.5811 8.93213 19.7411 8.93213 18.8311" stroke="" stroke-width="1.5" stroke-miterlimit="10"/>
</svg>