<svg width="36" height="38" viewBox="0 0 36 38" fill="none" xmlns="http://www.w3.org/2000/svg">
<path fill-rule="evenodd" clip-rule="evenodd" d="M11.5723 32.6558C10.8138 33.0706 9.89631 32.9976 9.20639 32.4675C8.51646 31.9374 8.17416 31.0425 8.32374 30.1599L9.53427 22.89L4.43775 17.7727C3.81479 17.1503 3.58648 16.2094 3.85008 15.3508C4.11367 14.4921 4.82273 13.8671 5.67522 13.7419L12.7514 12.6821L15.9461 6.00489C16.3249 5.2041 17.1041 4.69748 17.9572 4.69748C18.8102 4.69748 19.5894 5.2041 19.9682 6.00489L23.1629 12.6821L30.2391 13.7419C31.0916 13.8671 31.8006 14.4921 32.0642 15.3508C32.3278 16.2094 32.0995 17.1503 31.4766 17.7727L26.38 22.89L27.5906 30.1614C27.7402 31.044 27.3978 31.939 26.7079 32.469C26.018 32.9991 25.1005 33.0722 24.342 32.6574L17.9572 29.2004L11.5723 32.6558Z" />
</svg>
